HIERARCHY
ROOT Hips
{
	OFFSET 38.668098 -4.359876 98.826797
	CHANNELS 6 Xposition Yposition Zposition Xrotation Yrotation Zrotation
	JOINT spine
	{
		OFFSET 0.000000 -0.477353 8.301041
		CHANNELS 3 Xrotation Yrotation Zrotation
		JOINT spine1
		{
			OFFSET 0.000000 -0.000001 10.456497
			CHANNELS 3 Xrotation Yrotation Zrotation
			JOINT spine2
			{
				OFFSET 0.000000 -0.000002 10.019203
				CHANNELS 3 Xrotation Yrotation Zrotation
				JOINT Neck
				{
					OFFSET 0.000000 -1.226414 25.723503
					CHANNELS 3 Xrotation Yrotation Zrotation
					JOINT Head
					{
						OFFSET 0.000000 -0.000001 7.771744
						CHANNELS 3 Xrotation Yrotation Zrotation
						End Site
						{
							OFFSET 0.000000 6.203937 18.811996
						}
					}
				}
				JOINT RightShoulder
				{
					OFFSET -4.218800 0.587438 10.820000
					CHANNELS 3 Xrotation Yrotation Zrotation
					JOINT RightArm
					{
						OFFSET 0.000000 -0.000002 14.191406
						CHANNELS 3 Xrotation Yrotation Zrotation
						JOINT RightArmRoll
						{
							OFFSET 0.000000 -0.000001 7.164093
							CHANNELS 3 Xrotation Yrotation Zrotation
							JOINT RightForeArm
							{
								OFFSET 0.000000 -0.000003 20.866501
								CHANNELS 3 Xrotation Yrotation Zrotation
								JOINT RightForeArmRoll
								{
									OFFSET 0.000000 -0.000001 8.039215
									CHANNELS 3 Xrotation Yrotation Zrotation
									JOINT RightHand
									{
										OFFSET 0.000000 -0.000003 16.132996
										CHANNELS 3 Xrotation Yrotation Zrotation
										End Site
										{
											OFFSET 0.000000 0.000000 0.100006
										}
									}
								}
							}
						}
					}
				}
				JOINT LeftShoulder
				{
					OFFSET 4.218800 0.587438 10.820000
					CHANNELS 3 Xrotation Yrotation Zrotation
					JOINT LeftArm
					{
						OFFSET 0.000000 -0.000002 14.191406
						CHANNELS 3 Xrotation Yrotation Zrotation
						JOINT LeftArmRoll
						{
							OFFSET 0.000000 -0.000001 7.164093
							CHANNELS 3 Xrotation Yrotation Zrotation
							JOINT LeftForeArm
							{
								OFFSET 0.000000 -0.000003 20.866501
								CHANNELS 3 Xrotation Yrotation Zrotation
								JOINT LeftForeArmRoll
								{
									OFFSET 0.000000 -0.000001 8.039215
									CHANNELS 3 Xrotation Yrotation Zrotation
									JOINT LeftHand
									{
										OFFSET 0.000000 -0.000003 16.132996
										CHANNELS 3 Xrotation Yrotation Zrotation
										End Site
										{
											OFFSET 0.000000 0.000000 0.100006
										}
									}
								}
							}
						}
					}
				}
			}
		}
	}
	JOINT RightUpLeg
	{
		OFFSET -7.357731 1.131820 -1.349213
		CHANNELS 3 Xrotation Yrotation Zrotation
		JOINT RightUpLegRoll
		{
			OFFSET 0.000000 -0.000003 18.916801
			CHANNELS 3 Xrotation Yrotation Zrotation
			JOINT RightLeg
			{
				OFFSET 0.000000 0.000004 -23.425598
				CHANNELS 3 Xrotation Yrotation Zrotation
				JOINT RightLegRoll
				{
					OFFSET 0.000000 -0.000004 23.502296
					CHANNELS 3 Xrotation Yrotation Zrotation
					JOINT RightFoot
					{
						OFFSET 0.000000 -0.000003 19.561707
						CHANNELS 3 Xrotation Yrotation Zrotation
						JOINT RightToeBase
						{
							OFFSET 0.000000 -0.000003 16.352600
							CHANNELS 3 Xrotation Yrotation Zrotation
							End Site
							{
								OFFSET 0.006931 0.912836 7.919434
							}
						}
					}
				}
			}
		}
	}
	JOINT LeftUpLeg
	{
		OFFSET 7.357731 1.131820 -1.349213
		CHANNELS 3 Xrotation Yrotation Zrotation
		JOINT LeftUpLegRoll
		{
			OFFSET 0.000000 -0.000003 18.916901
			CHANNELS 3 Xrotation Yrotation Zrotation
			JOINT LeftLeg
			{
				OFFSET 0.000000 -0.000004 23.425507
				CHANNELS 3 Xrotation Yrotation Zrotation
				JOINT LeftLegRoll
				{
					OFFSET 0.000000 -0.000004 23.719498
					CHANNELS 3 Xrotation Yrotation Zrotation
					JOINT LeftFoot
					{
						OFFSET 0.000000 -0.000003 19.344406
						CHANNELS 3 Xrotation Yrotation Zrotation
						JOINT LeftToeBase
						{
							OFFSET 0.000000 -0.000003 16.352600
							CHANNELS 3 Xrotation Yrotation Zrotation
							End Site
							{
								OFFSET -0.031063 0.912835 7.919434
							}
						}
					}
				}
			}
		}
	}
}
MOTION
Frames: 11
Frame Time: 0.041667
39.456394 -3.611825 98.741310 -3.461870 -0.796019 0.921710 -1.481731 -0.077499 0.146177 1.048094 -0.156433 0.276453 2.693170 -0.153108 0.278298 23.407996 0.395137 -0.900639 -8.760335 1.618309 -0.925774 -3.950958 -76.360791 -6.261963 -80.306017 -106.723441 -49.730269 -0.000001 0.000004 -0.000001 0.056370 -7.245419 0.121688 -0.000002 0.000012 -3.042111 -5.000184 -7.999103 0.000128 7.395354 66.823545 -7.316303 -41.316733 105.090827 21.853086 0.000002 -0.000001 0.000000 0.125933 9.325010 0.486102 0.000001 -0.000007 3.000000 -5.000220 7.998843 -0.000138 1.444634 -175.249499 2.082025 -179.999991 0.000005 -1.103999 174.456118 -4.507901 -0.657083 -0.000003 -0.000002 0.063817 68.489435 6.889473 2.183289 25.456959 -7.355619 0.000000 1.395798 176.540022 1.265136 -0.000005 -0.000004 -1.171190 -9.470665 3.194934 0.967987 -0.000004 -0.000001 -0.126796 68.851558 -6.921371 -2.075596 25.456959 7.355613 0.000001 
39.455296 -3.606577 98.730400 -3.468384 -0.794557 0.915469 -1.480060 -0.078830 0.144781 1.051715 -0.158214 0.274434 2.696791 -0.154909 0.276291 23.423794 0.394697 -0.904549 -8.773457 1.636111 -0.929389 -3.961093 -76.333074 -6.270484 -80.339383 -106.807561 -49.776042 -0.000001 0.000004 -0.000000 0.056219 -7.218619 0.123959 -0.000002 0.000013 -3.042120 -5.000185 -7.999103 0.000129 7.397059 66.825376 -7.317933 -41.567121 105.099823 22.110745 0.000001 0.000002 0.000000 0.121958 9.322392 0.486885 0.000001 -0.000007 3.000001 -5.000221 7.998843 -0.000137 1.444810 -175.252504 2.078093 -179.999991 0.000004 -1.104000 174.453400 -4.503896 -0.657922 -0.000002 -0.000002 0.063817 68.487857 6.889507 2.183194 25.456957 -7.355619 0.000000 1.403514 176.539025 1.263646 -0.000005 -0.000004 -1.171190 -9.461013 3.195133 0.967960 -0.000005 -0.000001 -0.126796 68.846620 -6.921398 -2.075610 25.456959 7.355613 -0.000000 
39.453392 -3.583046 98.731201 -3.475072 -0.793042 0.908841 -1.478310 -0.080245 0.143340 1.055484 -0.160097 0.272343 2.700570 -0.156814 0.274213 23.439596 0.394985 -0.908609 -8.786938 1.653772 -0.933076 -3.971114 -76.304346 -6.278795 -80.367004 -106.892672 -49.817501 -0.000000 0.000004 -0.000001 0.056079 -7.192698 0.126077 -0.000000 0.000013 -3.042140 -5.000184 -7.999103 0.000128 7.398242 66.827923 -7.318873 -41.820941 105.108627 22.371807 0.000001 0.000000 0.000001 0.117760 9.319711 0.487708 0.000001 -0.000007 3.000002 -5.000224 7.998843 -0.000136 1.444905 -175.255496 2.074096 -179.999991 0.000005 -1.103999 174.450271 -4.498895 -0.657685 -0.000003 -0.000002 0.063817 68.486177 6.889496 2.183195 25.456962 -7.355617 -0.000000 1.411651 176.538055 1.262170 -0.000005 -0.000004 -1.171190 -9.451028 3.195294 0.967920 -0.000004 -0.000001 -0.126796 68.841545 -6.921383 -2.075626 25.456957 7.355613 -0.000000 
39.449398 -3.577145 98.733002 -3.481893 -0.791492 0.901947 -1.476523 -0.081720 0.141869 1.059374 -0.162052 0.270203 2.704451 -0.158790 0.272085 23.455503 0.395780 -0.912774 -8.800665 1.671341 -0.936812 -3.981056 -76.274929 -6.286962 -80.389803 -106.978425 -49.854876 0.000002 0.000005 0.000001 0.055945 -7.167397 0.128089 0.000000 0.000013 -3.042161 -5.000184 -7.999103 0.000127 7.399022 66.830908 -7.319285 -42.077804 105.117199 22.635913 0.000002 -0.000000 0.000000 0.113407 9.316982 0.488557 0.000001 -0.000007 3.000000 -5.000221 7.998842 -0.000137 1.444926 -175.258501 2.070073 -179.999991 0.000006 -1.103999 174.446911 -4.492901 -0.657371 -0.000003 -0.000002 0.063817 68.484271 6.889470 2.183312 25.456960 -7.355619 0.000001 1.420095 176.537058 1.260705 -0.000005 -0.000004 -1.171190 -9.440811 3.195429 0.967872 -0.000004 -0.000001 -0.126796 68.836470 -6.921366 -2.075638 25.456959 7.355614 0.000001 
39.448498 -3.579406 98.733505 -3.488779 -0.789921 0.894898 -1.474703 -0.083228 0.140381 1.063324 -0.164048 0.268034 2.708401 -0.160808 0.269929 23.471306 0.396866 -0.916999 -8.814532 1.688848 -0.940584 -3.990900 -76.245012 -6.294985 -80.410260 -107.064499 -49.890393 -0.000000 0.000005 0.000001 0.055814 -7.142449 0.130037 -0.000001 0.000012 -3.042192 -5.000183 -7.999103 0.000129 7.399610 66.834200 -7.319439 -42.332437 105.126952 22.897711 0.000001 0.000000 -0.000002 0.108960 9.314234 0.489425 0.000002 -0.000007 3.000001 -5.000221 7.998843 -0.000135 1.444930 -175.261493 2.066027 -179.999991 0.000005 -1.103999 174.443359 -4.487897 -0.658163 -0.000003 -0.000002 0.063817 68.482270 6.889474 2.183335 25.456957 -7.355617 0.000000 1.428704 176.535064 1.259215 -0.000005 -0.000004 -1.171190 -9.430448 3.195544 0.967816 -0.000004 -0.000001 -0.126796 68.831306 -6.921376 -2.075664 25.456957 7.355614 0.000000 
39.446495 -3.566916 98.737106 -3.495690 -0.788342 0.887811 -1.472883 -0.084745 0.138888 1.067285 -0.166054 0.265858 2.712371 -0.162836 0.267765 23.487209 0.398022 -0.921240 -8.828441 1.706354 -0.944346 -4.000724 -76.215089 -6.302984 -80.429705 -107.150819 -49.925042 0.000001 0.000004 -0.000000 0.055688 -7.117588 0.131973 -0.000002 0.000014 -3.042222 -5.000181 -7.999103 0.000127 7.400153 66.837595 -7.319532 -42.589252 105.136248 23.161716 0.000001 0.000001 -0.000000 0.104493 9.311468 0.490299 0.000002 -0.000007 2.999999 -5.000221 7.998843 -0.000137 1.444912 -175.264498 2.061971 -179.999991 0.000005 -1.103999 174.439794 -4.482895 -0.657959 -0.000003 -0.000002 0.063817 68.480289 6.889514 2.183267 25.456957 -7.355618 0.000000 1.437360 176.534094 1.257747 -0.000005 -0.000004 -1.171190 -9.420060 3.195660 0.967762 -0.000004 -0.000001 -0.126796 68.826040 -6.921380 -2.075795 25.456955 7.355614 -0.000000 
39.436001 -3.555495 98.735199 -3.502570 -0.786771 0.880802 -1.471063 -0.086245 0.137404 1.071225 -0.168041 0.263696 2.716301 -0.164844 0.265617 23.503010 0.399030 -0.925452 -8.842281 1.723879 -0.948099 -4.010487 -76.185262 -6.310933 -80.449820 -107.236893 -49.959897 0.000000 0.000005 -0.000000 0.055554 -7.092557 0.133943 -0.000000 0.000013 -3.042237 -5.000182 -7.999101 0.000127 7.400767 66.840798 -7.319727 -42.842918 105.146521 23.422534 0.000002 0.000001 0.000001 0.100071 9.308719 0.491162 0.000001 -0.000007 3.000001 -5.000221 7.998843 -0.000136 1.444918 -175.267490 2.057925 -179.999991 0.000005 -1.103999 174.436297 -4.477891 -0.657750 -0.000003 -0.000002 0.063817 68.478391 6.889484 2.183281 25.456962 -7.355618 0.000001 1.445931 176.533097 1.256284 -0.000005 -0.000004 -1.171190 -9.409734 3.195784 0.967709 -0.000004 -0.000001 -0.126796 68.820863 -6.921392 -2.075722 25.456957 7.355613 -0.000000 
39.435894 -3.547815 98.738907 -3.509347 -0.785224 0.873985 -1.469291 -0.087703 0.135942 1.075075 -0.169976 0.261572 2.720162 -0.166801 0.263505 23.518814 0.399671 -0.929589 -8.855938 1.741482 -0.951787 -4.020278 -76.156042 -6.318955 -80.472831 -107.322605 -49.996971 0.000000 0.000004 0.000001 0.055419 -7.067078 0.135983 -0.000001 0.000013 -3.042259 -5.000186 -7.999102 0.000128 7.401692 66.843762 -7.320325 -43.095929 105.157032 23.682841 0.000001 -0.000000 -0.000001 0.095758 9.305999 0.492002 0.000002 -0.000007 3.000001 -5.000221 7.998843 -0.000136 1.444962 -175.270495 2.053904 -179.999991 0.000005 -1.103999 174.432977 -4.472889 -0.658522 -0.000003 -0.000002 0.063817 68.476492 6.889497 2.183301 25.456960 -7.355618 0.000000 1.454288 176.532127 1.254813 -0.000005 -0.000004 -1.171190 -9.399582 3.195928 0.967662 -0.000003 -0.000001 -0.126796 68.815795 -6.921373 -2.075834 25.456952 7.355614 0.000000 
39.434692 -3.538873 98.735710 -3.515989 -0.783715 0.867476 -1.467562 -0.089093 0.134515 1.078805 -0.171831 0.259504 2.723883 -0.168676 0.261450 23.534615 0.399726 -0.933605 -8.869317 1.759204 -0.955396 -4.030087 -76.127615 -6.327072 -80.499503 -107.407709 -50.036504 -0.000001 0.000004 -0.000000 0.055274 -7.040898 0.138145 -0.000002 0.000013 -3.042279 -5.000187 -7.999101 0.000128 7.403017 66.846016 -7.321453 -43.347451 105.167558 23.941736 0.000001 0.000000 -0.000001 0.091628 9.303349 0.492811 0.000001 -0.000007 3.000001 -5.000221 7.998843 -0.000137 1.445076 -175.273487 2.049938 -179.999991 0.000005 -1.103999 174.429999 -4.467891 -0.658270 -0.000003 -0.000002 0.063817 68.474894 6.889456 2.183292 25.456959 -7.355619 0.000001 1.462296 176.530132 1.253308 -0.000005 -0.000004 -1.171190 -9.389698 3.196097 0.967625 -0.000004 -0.000001 -0.126796 68.810741 -6.921387 -2.075854 25.456959 7.355613 -0.000001 
39.435394 -3.531188 98.735703 -3.522418 -0.782260 0.861390 -1.465924 -0.090391 0.133138 1.082356 -0.173573 0.257516 2.727442 -0.170440 0.259474 23.550415 0.398978 -0.937455 -8.882309 1.777074 -0.958906 -4.039962 -76.100397 -6.335363 -80.532151 -107.491885 -50.080436 0.000002 0.000004 0.000001 0.055121 -7.013738 0.140474 -0.000001 0.000012 -3.042289 -5.000182 -7.999104 0.000129 7.404970 66.847635 -7.323399 -43.597203 105.178035 24.199147 0.000001 0.000001 -0.000001 0.087744 9.300759 0.493573 0.000002 -0.000007 3.000001 -5.000221 7.998843 -0.000138 1.445289 -175.276506 2.046020 -179.999991 0.000005 -1.103999 174.427459 -4.462895 -0.657984 -0.000003 -0.000002 0.063817 68.473439 6.889497 2.183292 25.456960 -7.355617 -0.000001 1.469828 176.529149 1.251816 -0.000005 -0.000005 -1.171190 -9.380181 3.196313 0.967604 -0.000006 -0.000001 -0.126796 68.805878 -6.921379 -2.075858 25.456962 7.355614 -0.000001 
39.428696 -3.519893 98.735809 -3.528588 -0.780876 0.855842 -1.464372 -0.091571 0.131822 1.085695 -0.175173 0.255630 2.730773 -0.172060 0.257597 23.566207 0.397206 -0.941093 -8.894809 1.795144 -0.962283 -4.049892 -76.074572 -6.343839 -80.572231 -107.574947 -50.129921 -0.000000 0.000003 -0.000000 0.054954 -6.985348 0.143022 -0.000000 0.000012 -3.042290 -5.000183 -7.999103 0.000125 7.407711 66.848305 -7.326375 -43.840099 105.189899 24.449700 0.000001 0.000001 0.000001 0.084172 9.298282 0.494275 0.000002 -0.000007 3.000000 -5.000221 7.998843 -0.000137 1.445626 -175.279484 2.042192 -179.999991 0.000005 -1.104000 174.425437 -4.457904 -0.658654 -0.000003 -0.000002 0.063817 68.472271 6.889485 2.183262 25.456962 -7.355616 -0.000000 1.476774 176.528165 1.250310 -0.000005 -0.000005 -1.171190 -9.371142 3.196584 0.967601 -0.000004 -0.000001 -0.126796 68.801131 -6.921376 -2.075853 25.456959 7.355613 0.000000 
